<?xml version="1.0" encoding="UTF-8" standalone="no"?>
<!-- Created with Inkscape (http://www.inkscape.org/) -->

<svg
   width="145.46703mm"
   height="156.2373mm"
   viewBox="0 0 145.46703 156.23731"
   version="1.1"
   id="svg1"
   xml:space="preserve"
   inkscape:version="1.4.2 (ebf0e940d0, 2025-05-08)"
   sodipodi:docname="icon.svg"
   xmlns:inkscape="http://www.inkscape.org/namespaces/inkscape"
   xmlns:sodipodi="http://sodipodi.sourceforge.net/DTD/sodipodi-0.dtd"
   xmlns="http://www.w3.org/2000/svg"
   xmlns:svg="http://www.w3.org/2000/svg"><sodipodi:namedview
     id="namedview1"
     pagecolor="#ffffff"
     bordercolor="#000000"
     borderopacity="0.25"
     inkscape:showpageshadow="2"
     inkscape:pageopacity="0.0"
     inkscape:pagecheckerboard="0"
     inkscape:deskcolor="#d1d1d1"
     inkscape:document-units="mm"
     inkscape:zoom="0.88816583"
     inkscape:cx="457.12184"
     inkscape:cy="157.06526"
     inkscape:window-width="1920"
     inkscape:window-height="1090"
     inkscape:window-x="0"
     inkscape:window-y="0"
     inkscape:window-maximized="1"
     inkscape:current-layer="layer1" /><defs
     id="defs1" /><g
     inkscape:label="Layer 1"
     inkscape:groupmode="layer"
     id="layer1"
     transform="translate(-37.587789,-53.282439)"><path
       style="fill:#000000"
       d="m 40.126604,209.0355 c -0.553441,-0.61153 -0.564525,-1.73377 -0.0225,-2.2758 l 0.415774,-0.41578 h 0.712408 l 0.439119,-1.52135 c 1.775564,-6.15154 7.866868,-11.21194 14.287917,-11.8698 l 1.667932,-0.17088 1.248998,-1.82797 c 0.686948,-1.00539 1.909657,-2.41681 2.717129,-3.1365 1.609819,-1.43481 4.988069,-3.21194 7.060827,-3.71436 0.727605,-0.17636 1.414477,-0.40199 1.526384,-0.50139 0.111907,-0.0994 -0.25768,-1.18453 -0.821304,-2.41142 -1.960211,-4.26694 -4.071989,-11.60165 -4.908208,-17.04736 -1.146262,-7.46481 -1.222797,-17.03616 -0.190781,-23.85882 2.161783,-14.29155 8.154709,-25.68046 17.052915,-32.40721 4.057438,-3.0673 10.835559,-5.81235 16.191281,-6.55726 3.859425,-0.53679 9.795235,-0.25853 13.350755,0.62587 l 0.66146,0.16453 0.60814,-1.92418 c 0.33448,-1.058305 1.07862,-2.921905 1.65365,-4.141345 0.57502,-1.21944 1.0455,-2.23596 1.0455,-2.25894 0,-0.023 -1.87523,0.006 -4.16719,0.0635 -3.15111,0.0796 -4.74422,-0.003 -6.53375,-0.33893 -5.918833,-1.11102 -10.393345,-3.52501 -14.601823,-7.87765 -3.526173,-3.64696 -5.668353,-7.0033 -7.599179,-11.906292 -2.018615,-5.125922 -2.920527,-8.994877 -3.384552,-14.518804 -0.343058,-4.083889 -0.243236,-4.802028 0.758746,-5.458552 l 0.711767,-0.466368 5.832469,0.0085 5.832469,0.0085 3.399198,0.725825 c 4.619881,0.986476 8.852475,2.377949 11.538855,3.793415 9.18154,4.837811 13.8908,12.040342 14.85237,22.715795 0.14418,1.60073 0.29297,3.01798 0.33065,3.14945 0.0377,0.13148 0.58036,-1.05915 1.20598,-2.64583 3.11591,-7.902585 6.46302,-12.61787 11.81711,-16.647471 2.70033,-2.032326 4.85001,-3.135953 8.45534,-4.340884 4.62229,-1.544811 7.70464,-1.965797 13.20894,-1.804074 4.98787,0.14655 8.09692,0.65703 13.41606,2.202806 4.81838,1.400252 11.3827,4.15458 12.72602,5.339722 0.68358,0.603093 0.57015,1.65596 -0.45132,4.189176 -2.56561,6.362596 -7.59195,13.683185 -12.8801,18.759185 -2.96455,2.84561 -4.68084,4.17923 -7.65764,5.95023 -10.64443,6.332776 -21.15202,6.663586 -33.01995,1.03959 -1.51029,-0.71571 -2.896,-1.30128 -3.07937,-1.30128 -0.39712,0 -2.32383,3.61784 -3.06729,5.759546 -0.50722,1.46117 -1.29381,4.77483 -1.29381,5.45045 0,0.18012 0.72975,0.84213 1.62166,1.47112 5.51842,3.89169 9.29889,9.41519 11.07263,16.17778 l 0.58481,2.22964 0.13665,4.63021 c 0.10193,3.45369 0.0284,5.40065 -0.28955,7.66229 -0.53773,3.82552 -0.54356,7.40922 -0.0158,9.68501 0.54705,2.35886 1.76452,4.72072 4.95293,9.60861 1.45999,2.2382 3.11823,5.12023 3.68496,6.40451 2.32003,5.25746 3.10692,11.31593 2.20955,17.01188 -0.24952,1.58378 -0.51276,3.03359 -0.58499,3.2218 -0.0911,0.23736 0.26016,0.39906 1.14634,0.52776 4.29807,0.62421 9.56052,3.88266 11.72956,7.26282 l 0.80964,1.26171 1.77756,0.19026 c 7.08743,0.75858 12.9713,5.89904 14.458,12.63128 l 0.1597,0.72315 c 3.20374,-0.0134 -2.2101,0.0367 0.99339,0.07 l 0.40687,0.7276 0.40687,0.7276 -0.40702,0.72761 -0.40702,0.7276 -67.44624,0.13781 -67.609656,0.0666 z m 130.940106,-3.41918 c -0.2756,-1.17333 -1.67677,-3.83699 -2.47044,-4.69635 -2.73453,-2.9609 -5.8644,-4.43606 -10.26571,-4.83843 l -2.06366,-0.18866 -0.76754,-1.32291 c -2.16469,-3.73102 -6.31558,-6.46567 -10.80704,-7.1198 l -1.22023,-0.17771 -0.31276,0.75506 c -0.17201,0.41528 -0.95523,1.75956 -1.74049,2.98729 l -1.42774,2.23224 1.6378,0.41094 c 2.13635,0.53604 4.46416,1.70673 5.61386,2.8233 0.70393,0.68365 0.91874,1.10897 0.91874,1.81908 v 0.92681 l -0.95259,0.39801 -0.95259,0.39802 -0.46375,-0.34537 c -0.25506,-0.18996 -0.97966,-0.73545 -1.61022,-1.2122 -2.43915,-1.84421 -5.9968,-2.13364 -8.35351,-0.67961 -2.8412,1.75296 -3.09182,1.7281 -4.57728,-0.454 -1.17601,-1.7275 -3.66125,-3.49689 -5.80097,-4.13002 -3.03396,-0.89774 -6.65385,-0.4805 -9.89019,1.13996 -1.76246,0.88248 -2.15094,0.80815 -3.30292,-0.6319 -3.65798,-4.57275 -7.95756,-6.6614 -13.043896,-6.33645 -4.575431,0.2923 -8.713945,2.53306 -11.404155,6.17466 -1.232467,1.66833 -1.59836,1.73561 -3.843559,0.70676 -1.150452,-0.52719 -2.102311,-0.7402 -3.669993,-0.82128 l -2.116667,-0.10946 -1.70916,0.5782 c -1.910963,0.64647 -2.749268,1.16666 -4.563359,2.83167 -1.389587,1.27539 -2.282942,1.45117 -3.120189,0.61392 -0.665173,-0.66517 -0.666497,-1.22673 -0.0055,-2.31091 0.598759,-0.98202 3.066282,-2.87725 4.708233,-3.61625 0.614928,-0.27676 1.11805,-0.60561 1.11805,-0.73078 0,-0.12516 -0.553249,-1.05958 -1.229443,-2.07648 -1.351125,-2.0319 -1.464197,-2.07782 -3.665348,-1.48836 -3.633011,0.9729 -7.68168,4.18316 -8.98103,7.12122 -0.696008,1.5738 -1.033252,1.76891 -3.068069,1.77503 -0.66065,0.002 -1.902115,0.18619 -2.758812,0.40933 -4.788665,1.24729 -8.540468,4.53961 -10.050564,8.81968 l -0.385759,1.09335 h 63.38465 63.38465 z m -36.82359,-11.58167 c 0.9888,-0.64788 4.03988,-4.44407 5.05261,-6.28651 1.79969,-3.27413 3.04636,-8.05132 3.04338,-11.66209 -0.002,-2.57223 -0.63569,-6.52861 -1.40411,-8.76816 -0.90714,-2.64383 -2.06962,-4.83997 -4.4753,-8.45465 -2.40847,-3.61889 -3.79055,-6.25312 -4.8534,-9.25058 l -0.74278,-2.09481 -0.49759,1.16877 c -1.40868,3.30875 -1.60623,8.47994 -0.45172,11.82443 l 0.57296,1.65983 -0.42935,0.65527 c -0.54139,0.82627 -1.96314,0.90288 -2.65096,0.14285 -1.4739,-1.62864 -2.08814,-8.7754 -1.09295,-12.71674 0.27558,-1.09141 1.32786,-4.06797 2.3384,-6.61458 2.16385,-5.45305 2.55747,-7.03933 2.75746,-11.1125 0.3988,-8.12232 -2.44676,-15.75306 -7.6491,-20.51208 -4.25855,-3.89565 -9.30911,-6.23551 -15.75677,-7.2999 l -3.36636,-0.55572 -3.30729,0.14178 c -8.571596,0.36746 -15.808535,3.48013 -21.5558,9.27133 -3.784793,3.81372 -6.271114,7.78847 -8.786826,14.04704 -3.399181,8.45645 -4.948815,19.79238 -4.052654,29.64609 0.640755,7.04539 1.7487,12.55901 3.608154,17.95575 1.250373,3.62899 4.21913,9.59059 6.158661,12.36729 l 1.590638,2.27722 2.192352,0.14953 c 1.205793,0.0822 2.760413,0.34946 3.454711,0.59383 l 1.26236,0.4443 1.824963,-1.72157 c 1.982353,-1.87006 4.423002,-3.36191 7.144844,-4.36731 2.41127,-0.89068 7.013427,-1.10214 9.965857,-0.45792 3.3147,0.72327 5.64986,1.98482 8.19268,4.42604 l 2.20231,2.1143 1.69853,-0.67952 c 5.38188,-2.1531 12.74215,-0.70111 16.4357,3.24233 0.90734,0.96873 0.79535,0.93842 1.57639,0.42666 z m -37.354123,-43.489 c -1.698095,-0.58655 -4.106951,-2.20538 -4.974861,-3.34327 -1.106243,-1.45036 -0.708751,-3.03657 0.76032,-3.03411 l 0.850586,0.001 1.212418,1.25534 c 1.978528,2.04858 4.856484,2.77106 7.73357,1.94142 0.88133,-0.25414 1.80294,-0.84729 2.99504,-1.92761 l 1.72197,-1.56052 0.57683,0.17265 c 1.01809,0.30473 1.35075,0.83748 1.26965,2.03333 -0.0423,0.624 -1.77373,2.50456 -3.0445,3.30676 -2.61506,1.65082 -6.308064,2.11932 -9.101023,1.15458 z m -14.280435,-9.28779 c -0.474273,-0.28917 -1.098906,-0.9138 -1.388073,-1.38808 -1.06017,-1.73881 -0.435261,-4.10015 1.388073,-5.24508 l 0.862314,-0.54148 1.391097,0.10281 c 2.269968,0.16777 3.663486,1.87476 3.438865,4.21243 -0.262812,2.73513 -3.351422,4.28663 -5.692276,2.8594 z m 31.257198,0.14755 c -2.30587,-1.00357 -2.81135,-4.5296 -0.91043,-6.3508 0.92924,-0.89026 2.95713,-1.21284 4.25222,-0.6764 1.97871,0.81961 2.80099,3.0697 1.88145,5.14846 l -0.538,1.21624 -1.13589,0.51553 c -1.32834,0.60287 -2.39989,0.64724 -3.54935,0.14697 z m 4.68328,-39.5719 c 1.1145,-4.698495 3.90433,-9.809865 7.4725,-13.690705 1.3729,-1.4932 5.47916,-4.83814 8.28327,-6.74753 7.10173,-4.835731 18.11456,-9.098045 26.19587,-10.138633 l 1.35896,-0.174987 0.55926,0.559261 c 0.75611,0.756104 0.73802,2.019585 -0.036,2.517485 -0.32742,0.210608 -1.98546,0.629491 -3.68454,0.930852 -8.74019,1.550223 -17.78675,5.494062 -24.97907,10.889602 -2.22342,1.66796 -5.66607,5.01113 -5.66607,5.50233 0,0.55785 6.36743,3.24785 9.78279,4.13286 5.71198,1.48012 12.96131,0.70933 18.73991,-1.99253 5.21579,-2.43871 11.85676,-8.03136 15.72558,-13.24321 3.3775,-4.549956 7.54904,-12.340699 6.92094,-12.925483 -0.4453,-0.414583 -4.46653,-2.050576 -8.04214,-3.271852 -5.09016,-1.738582 -9.32918,-2.560906 -14.15521,-2.745958 -6.69555,-0.256738 -10.75869,0.551135 -16.13958,3.209031 l -3.43958,1.698985 -2.38125,2.087271 c -4.2906,3.760901 -7.20014,8.318141 -9.23577,14.466076 l -0.9493,2.86704 -1.67843,1.63763 c -2.85616,2.78673 -5.87411,7.79347 -7.26419,12.05121 -1.16346,3.563595 -1.17133,3.414805 0.20998,3.970215 0.65484,0.26331 1.3573,0.46 1.56102,0.43708 0.23202,-0.0261 0.54625,-0.783 0.8411,-2.02604 z m -5.6471,-11.348475 c 0.76188,-0.10854 1.46772,-0.27982 1.56854,-0.38064 0.27049,-0.27049 -1.15712,-3.14858 -2.84006,-5.72559 -3.9099,-5.98709 -9.94341,-11.845325 -15.612411,-15.158896 -2.45315,-1.433883 -3.040295,-2.145811 -2.639376,-3.200307 0.481854,-1.267373 1.774038,-1.276404 3.849047,-0.0269 7.95445,4.78992 15.10426,12.140002 19.12388,19.659562 0.92936,1.73857 1.38811,2.36651 1.54638,2.11667 0.12376,-0.19537 0.26908,-2.08889 0.32295,-4.20783 0.10877,-4.27882 -0.25585,-6.745252 -1.52952,-10.346378 -1.02669,-2.902807 -2.22194,-4.773894 -4.72235,-7.392528 -3.52487,-3.691531 -7.38542,-5.906951 -13.284603,-7.623529 -3.895713,-1.133597 -7.108228,-1.604239 -12.229898,-1.791714 l -4.424689,-0.161962 -0.181051,0.471812 c -0.189076,0.492723 0.285474,5.393493 0.74349,7.678163 2.040351,10.177659 7.124255,18.531706 13.84319,22.747606 4.466391,2.8025 10.978261,4.12432 16.466481,3.342461 z"
       id="path1"
       sodipodi:nodetypes="ssccsscsssssssssscsssccsssscccsssscssssssscsssssscscssssssscssccccccccscsscsscsscssscccssssssssssscssscssssssssccccsscssscsscssssssscssssssccscsssscssscsccssscsssccssscssssssscsscssscsssssssssssscsscssssccsscsssssssssscssss" /></g></svg>
